<mxfile host="app.diagrams.net" modified="2020-04-22T05:39:25.179Z" agent="5.0 (Windows NT 10.0; Win64; x64) AppleWebKit/537.36 (KHTML, like Gecko) Chrome/81.0.4044.122 Safari/537.36" etag="sjlbo15Z8G7p_RWnECxZ" version="13.0.1" type="github">
  <diagram id="rGlWHtnzIzeY4V4LjtLD" name="Page-1">
    <mxGraphModel dx="494" dy="553" grid="1" gridSize="10" guides="1" tooltips="1" connect="1" arrows="1" fold="1" page="1" pageScale="1" pageWidth="850" pageHeight="1100" math="0" shadow="0">
      <root>
        <mxCell id="0" />
        <mxCell id="1" parent="0" />
        <mxCell id="MliF5R-EKqg-saL_2XL7-4" style="edgeStyle=orthogonalEdgeStyle;rounded=0;orthogonalLoop=1;jettySize=auto;html=1;exitX=0.5;exitY=1;exitDx=0;exitDy=0;entryX=0.5;entryY=0;entryDx=0;entryDy=0;" parent="1" source="MliF5R-EKqg-saL_2XL7-2" target="MliF5R-EKqg-saL_2XL7-3" edge="1">
          <mxGeometry relative="1" as="geometry" />
        </mxCell>
        <mxCell id="MliF5R-EKqg-saL_2XL7-2" value="&lt;b&gt;START&lt;/b&gt;" style="ellipse;whiteSpace=wrap;html=1;" parent="1" vertex="1">
          <mxGeometry x="395" y="20" width="60" height="40" as="geometry" />
        </mxCell>
        <mxCell id="MliF5R-EKqg-saL_2XL7-6" style="edgeStyle=orthogonalEdgeStyle;rounded=0;orthogonalLoop=1;jettySize=auto;html=1;exitX=0.5;exitY=1;exitDx=0;exitDy=0;entryX=0.5;entryY=0;entryDx=0;entryDy=0;" parent="1" source="MliF5R-EKqg-saL_2XL7-3" target="MliF5R-EKqg-saL_2XL7-5" edge="1">
          <mxGeometry relative="1" as="geometry" />
        </mxCell>
        <mxCell id="MliF5R-EKqg-saL_2XL7-3" value="&lt;span&gt;BCL_DATA&lt;/span&gt;" style="shape=parallelogram;perimeter=parallelogramPerimeter;whiteSpace=wrap;html=1;fontStyle=0" parent="1" vertex="1">
          <mxGeometry x="365" y="90" width="120" height="30" as="geometry" />
        </mxCell>
        <mxCell id="MliF5R-EKqg-saL_2XL7-10" style="edgeStyle=orthogonalEdgeStyle;rounded=0;orthogonalLoop=1;jettySize=auto;html=1;exitX=0.5;exitY=1;exitDx=0;exitDy=0;entryX=0.5;entryY=0;entryDx=0;entryDy=0;" parent="1" source="MliF5R-EKqg-saL_2XL7-5" target="MliF5R-EKqg-saL_2XL7-9" edge="1">
          <mxGeometry relative="1" as="geometry" />
        </mxCell>
        <mxCell id="MliF5R-EKqg-saL_2XL7-5" value="PREPROCESS THE DATA" style="rounded=0;whiteSpace=wrap;html=1;" parent="1" vertex="1">
          <mxGeometry x="350" y="150" width="150" height="30" as="geometry" />
        </mxCell>
        <mxCell id="MliF5R-EKqg-saL_2XL7-9" value="CLUSTER THE DATA" style="rounded=0;whiteSpace=wrap;html=1;" parent="1" vertex="1">
          <mxGeometry x="363" y="220" width="125" height="30" as="geometry" />
        </mxCell>
        <mxCell id="MliF5R-EKqg-saL_2XL7-11" value="CLUSTER 2" style="rounded=0;whiteSpace=wrap;html=1;fontStyle=1" parent="1" vertex="1">
          <mxGeometry x="365" y="320" width="120" height="60" as="geometry" />
        </mxCell>
        <mxCell id="MliF5R-EKqg-saL_2XL7-13" value="CLUSTER 1" style="rounded=0;whiteSpace=wrap;html=1;fontStyle=1" parent="1" vertex="1">
          <mxGeometry x="200" y="320" width="120" height="60" as="geometry" />
        </mxCell>
        <mxCell id="MliF5R-EKqg-saL_2XL7-14" value="CLUSTER 0" style="rounded=0;whiteSpace=wrap;html=1;fontStyle=1" parent="1" vertex="1">
          <mxGeometry x="40" y="320" width="120" height="60" as="geometry" />
        </mxCell>
        <mxCell id="MliF5R-EKqg-saL_2XL7-15" value="CLUSTER 3" style="rounded=0;whiteSpace=wrap;html=1;fontStyle=1" parent="1" vertex="1">
          <mxGeometry x="520" y="320" width="120" height="60" as="geometry" />
        </mxCell>
        <mxCell id="MliF5R-EKqg-saL_2XL7-16" value="CLUSTER 4" style="rounded=0;whiteSpace=wrap;html=1;fontStyle=1" parent="1" vertex="1">
          <mxGeometry x="680" y="320" width="120" height="60" as="geometry" />
        </mxCell>
      </root>
    </mxGraphModel>
  </diagram>
</mxfile>
